<?xml version="1.0" encoding="UTF-8"?>
<svg width="80px" height="80px" viewBox="0 0 80 80" version="1.1" xmlns="http://www.w3.org/2000/svg" xmlns:xlink="http://www.w3.org/1999/xlink">
    <title>编组 2@4x</title>
    <g id="页面-1" stroke="none" stroke-width="1" fill="none" fill-rule="evenodd">
        <g id="数据管理-生产数据-详情" transform="translate(-234.000000, -174.000000)">
            <g id="编组-2" transform="translate(234.000000, 174.000000)">
                <rect id="矩形" fill-opacity="0.1" fill="#4762FE" x="0" y="0" width="80" height="80" rx="4"></rect>
                <g id="编组" transform="translate(16.000000, 16.000000)" fill="#FFFFFF" fill-rule="nonzero">
                    <path d="M46.1471074,12.9270464 L1.85049252,12.9270464 C0.829430295,12.9270464 0.00132433493,13.7540774 1.54259324e-15,14.7751388 L1.54259324e-15,46.1567078 C0.00396573334,47.1758936 0.831299048,48 1.85049252,48 L46.1495075,48 C47.168701,48 47.9960343,47.1758936 48,46.1567078 L48,14.7751388 C47.9960449,13.7551721 47.1694784,12.9296777 46.1495075,12.9270464 L46.1471074,12.9270464 Z M9.23086154,3.69618482 L38.7715386,3.69618482 C39.0172498,3.69428257 39.2521407,3.59484602 39.4245344,3.41975168 C39.596928,3.24465734 39.6927016,3.00824919 39.6908975,2.76253813 L39.6908975,0.933646689 C39.6946433,0.687362006 39.5995006,0.449831542 39.4266885,0.27431224 C39.2538764,0.0987929373 39.0178535,-1.54051147e-15 38.7715386,-1.54051147e-15 L9.23086154,-1.54051147e-15 C8.71975047,0.00527612297 8.30894681,0.422515354 8.31150262,0.933646689 L8.31150262,2.76013801 C8.30775686,3.0064227 8.40289955,3.24395316 8.57571161,3.41947246 C8.74852368,3.59499177 8.98454663,3.69381492 9.23086154,3.6937847 L9.23086154,3.69618482 Z M4.62503125,10.1549078 C4.37806976,10.1549152 4.14132672,10.05632 3.96737586,9.88101716 C3.793425,9.70571435 3.69666554,9.4682151 3.69855691,9.22126107 L3.69855691,7.39956999 C3.69725497,6.88618945 4.11165581,6.46856788 4.62503125,6.46591037 L43.3845692,6.46591037 C43.6319296,6.46461393 43.8694335,6.56279342 44.0436678,6.73838186 C44.2179021,6.9139703 44.3142399,7.15222713 44.311094,7.39956999 L44.311094,9.22606131 C44.3123455,9.73944184 43.8979447,10.1570634 43.3845692,10.159708 L4.62023101,10.159708 L4.62503125,10.1549078 Z M35.9681984,30.5343267 C36.2552755,30.809616 36.4781702,31.1447775 36.6210311,31.5159758 C36.7815338,31.8955973 36.8631912,32.3038842 36.8610844,32.7160358 C36.8648002,33.5308965 36.5342777,34.3116583 35.9465973,34.8761438 C35.349785,35.449615 34.5517181,35.7659115 33.7240862,35.7569879 C32.9037982,35.7571419 32.1148839,35.4417481 31.520776,34.8761438 C30.6989679,34.0725398 30.409004,32.8697957 30.7743387,31.779989 C30.8705141,31.493508 31.0036435,31.2207944 31.1703585,30.9687484 L29.0294515,27.2437622 L25.2948647,35.3825691 C25.4858261,35.6508694 25.6392513,35.9439924 25.7508875,36.2538127 C26.142149,37.3530287 25.8550067,38.5794833 25.0164508,39.3907695 C23.7810653,40.5736306 21.8332154,40.5736306 20.5978299,39.3907695 C20.022364,38.8191625 19.6984501,38.0417689 19.6977849,37.2306615 C19.6981766,37.0500662 19.7102021,36.8696837 19.7337867,36.6906345 C19.7563646,36.5237741 19.8058066,36.3616691 19.880194,36.2106105 L15.559978,31.1271564 L15.339167,31.1271564 C14.435769,31.1971365 13.5451085,30.8804766 12.8886444,30.2559128 C12.308553,29.6927459 11.9812,28.9186998 11.9812,28.1102055 C11.9812,27.3017112 12.308553,26.5276651 12.8886444,25.9644982 C14.1327502,24.7895302 16.0775603,24.7895302 17.3216661,25.9644982 C18.1340958,26.7461073 18.4351524,27.9196708 18.099305,28.9958498 C18.01499,29.2727093 17.8964692,29.5379703 17.7464873,29.7854893 L21.5290765,34.4441222 C21.726853,34.3563034 21.9305668,34.2825173 22.1387069,34.2233112 C22.4721758,34.1195452 22.8266817,34.1030181 23.1683584,34.1753088 L26.9629481,25.8852943 C26.2980525,25.3163339 25.9185458,24.482649 25.9260963,23.6075804 C25.9272267,22.7863061 26.2584252,21.9999547 26.8452159,21.4253511 C27.4320067,20.8507475 28.2251352,20.5361234 29.0462523,20.5522276 C29.8747053,20.5438145 30.6731474,20.8619842 31.2687634,21.4378719 C31.878373,22.0266046 32.2103027,22.8458619 32.1824039,23.6928871 C32.1545051,24.5399123 31.769385,25.3355518 31.1223561,25.8828942 L33.2152608,29.6174809 L33.7432872,29.6174809 C34.5712103,29.6143092 35.3680283,29.9326921 35.9657983,30.5055253 L35.9681984,30.5343267 Z" id="形状"></path>
                </g>
            </g>
        </g>
    </g>
</svg>