<?xml version="1.0" encoding="UTF-8"?>
<svg width="12px" height="12px" viewBox="0 0 12 12" version="1.1" xmlns="http://www.w3.org/2000/svg" xmlns:xlink="http://www.w3.org/1999/xlink">
    <title>info-circle-o - anticon 2@4x</title>
    <g id="页面-1" stroke="none" stroke-width="1" fill="none" fill-rule="evenodd">
        <g id="设备管理" transform="translate(-618.000000, -282.000000)" fill="#97A3B4">
            <g id="1备份" transform="translate(232.000000, 268.000000)">
                <g id="info-circle-o---anticon-2" transform="translate(386.000000, 14.000000)">
                    <path d="M9.01171875,0.802734375 C9.93359836,1.3378933 10.6621067,2.06640164 11.1972656,2.98828125 C11.7324246,3.91016086 12,4.91405707 12,6 C12,7.08594293 11.7324246,8.08983914 11.1972656,9.01171875 C10.6621067,9.93359836 9.93359836,10.6621067 9.01171875,11.1972656 C8.08983914,11.7324246 7.08594293,12 6,12 C4.91405707,12 3.91016086,11.7324246 2.98828125,11.1972656 C2.06640164,10.6621067 1.3378933,9.93359836 0.802734375,9.01171875 C0.267575449,8.08983914 0,7.08594293 0,6 C0,4.91405707 0.267575449,3.91016086 0.802734375,2.98828125 C1.3378933,2.06640164 2.06640164,1.3378933 2.98828125,0.802734375 C3.91016086,0.267575449 4.91405707,0 6,0 C7.08594293,0 8.08983914,0.267575449 9.01171875,0.802734375 Z M9.64453125,9.64453125 C10.1210961,9.16796637 10.4921862,8.62109684 10.7578125,8.00390625 C11.0234388,7.37109059 11.15625,6.70312852 11.15625,6 C11.15625,5.29687148 11.0195326,4.62890941 10.7460938,3.99609375 C10.48828,3.37890316 10.1210961,2.83203363 9.64453125,2.35546875 C9.16796637,1.87890387 8.62109684,1.50781383 8.00390625,1.2421875 C7.37109059,0.976561172 6.70312852,0.84375 6,0.84375 C5.29687148,0.84375 4.62890941,0.980467383 3.99609375,1.25390625 C3.37890316,1.51172004 2.83203363,1.87890387 2.35546875,2.35546875 C1.87890387,2.83203363 1.50781383,3.37890316 1.2421875,3.99609375 C0.976561172,4.62890941 0.84375,5.29687148 0.84375,6 C0.84375,6.70312852 0.980467383,7.37109059 1.25390625,8.00390625 C1.51172004,8.62109684 1.87890387,9.16796637 2.35546875,9.64453125 C2.83203363,10.1210961 3.37890316,10.4921862 3.99609375,10.7578125 C4.62890941,11.0234388 5.29687148,11.15625 6,11.15625 C6.70312852,11.15625 7.37109059,11.0195326 8.00390625,10.7460938 C8.62109684,10.48828 9.16796637,10.1210961 9.64453125,9.64453125 Z M7.3828125,8.2734375 C7.50000059,8.2734375 7.59960896,8.31445271 7.68164062,8.39648438 C7.76367229,8.47851604 7.8046875,8.57812441 7.8046875,8.6953125 C7.8046875,8.81250059 7.76367229,8.91210896 7.68164062,8.99414062 C7.59960896,9.07617229 7.50000059,9.1171875 7.3828125,9.1171875 L4.546875,9.1171875 C4.42968691,9.1171875 4.33007854,9.07617229 4.24804688,8.99414062 C4.16601521,8.91210896 4.125,8.81250059 4.125,8.6953125 C4.125,8.57812441 4.16601521,8.47851604 4.24804688,8.39648438 C4.33007854,8.31445271 4.42968691,8.2734375 4.546875,8.2734375 L5.54296875,8.2734375 L5.54296875,4.59375 L4.83984375,4.59375 C4.72265566,4.59375 4.62304729,4.55078168 4.54101562,4.46484375 C4.45898396,4.37890582 4.41796875,4.28125055 4.41796875,4.171875 C4.41796875,4.05468691 4.45898396,3.95507854 4.54101562,3.87304688 C4.62304729,3.79101521 4.72265566,3.75 4.83984375,3.75 L5.96484375,3.75 C6.08203184,3.75 6.18164021,3.79101521 6.26367188,3.87304688 C6.34570354,3.95507854 6.38671875,4.05468691 6.38671875,4.171875 L6.38671875,8.2734375 L7.3828125,8.2734375 Z M5.66601562,2.87695312 C5.58398396,2.79492146 5.54296875,2.69726619 5.54296875,2.58398438 C5.54296875,2.47070256 5.58398396,2.37109418 5.66601562,2.28515625 C5.74804729,2.19921832 5.84765566,2.15625 5.96484375,2.15625 C6.08203184,2.15625 6.18164021,2.19921832 6.26367188,2.28515625 C6.34570354,2.37109418 6.38671875,2.47070256 6.38671875,2.58398438 C6.38671875,2.69726619 6.34570354,2.79492146 6.26367188,2.87695312 C6.18164021,2.95898479 6.08203184,3 5.96484375,3 C5.84765566,3 5.74804729,2.95898479 5.66601562,2.87695312 Z" id="info-circle-o---anticon"></path>
                </g>
            </g>
        </g>
    </g>
</svg>